<svg xmlns="http://www.w3.org/2000/svg" viewBox="0 0 20 20" fill="#24292f"><path d="M14.8777 7.28311L15.226 8.3539C15.3343 8.67945 15.5171 8.97527 15.7599 9.21784C16.0026 9.46042 16.2987 9.64308 16.6245 9.7513L17.6961 10.0993L17.7175 10.1047C17.8001 10.1338 17.8716 10.1878 17.9222 10.2592C17.9728 10.3307 18 10.416 18 10.5035C18 10.5911 17.9728 10.6764 17.9222 10.7479C17.8716 10.8193 17.8001 10.8733 17.7175 10.9024L16.6459 11.2504C16.3201 11.3586 16.024 11.5413 15.7813 11.7839C15.5385 12.0265 15.3557 12.3223 15.2474 12.6478L14.8991 13.7186C14.87 13.8011 14.816 13.8726 14.7445 13.9232C14.673 13.9737 14.5876 14.0009 14.5 14.0009C14.4124 14.0009 14.327 13.9737 14.2555 13.9232C14.2484 13.9182 14.2415 13.913 14.2348 13.9076C14.1736 13.8584 14.1271 13.793 14.1008 13.7186L13.7525 12.6478C13.7338 12.591 13.7128 12.5351 13.6896 12.4802C13.5796 12.2196 13.4202 11.982 13.2196 11.7808C13.1815 11.7426 13.142 11.7058 13.1014 11.6706C12.883 11.4815 12.6292 11.3367 12.3541 11.2451L11.2824 10.8971C11.1998 10.8679 11.1283 10.8139 11.0777 10.7425C11.0271 10.6711 11 10.5857 11 10.4982C11 10.4107 11.0271 10.3253 11.0777 10.2539C11.1283 10.1824 11.1998 10.1284 11.2824 10.0993L12.3541 9.7513C12.6759 9.64026 12.9676 9.45634 13.2065 9.21392C13.4454 8.97151 13.6249 8.67716 13.7311 8.3539L14.0794 7.28311C14.1085 7.20057 14.1625 7.12911 14.234 7.07855C14.3055 7.028 14.391 7.00085 14.4785 7.00085C14.5661 7.00085 14.6515 7.028 14.723 7.07855C14.7945 7.12911 14.8486 7.20057 14.8777 7.28311ZM19.7829 15.214L19.0175 14.9655C18.7847 14.8882 18.5733 14.7577 18.3999 14.5844C18.2265 14.4112 18.0959 14.1999 18.0186 13.9673L17.7698 13.2025C17.749 13.1435 17.7104 13.0925 17.6593 13.0564C17.6082 13.0203 17.5472 13.0009 17.4847 13.0009C17.4221 13.0009 17.3611 13.0203 17.31 13.0564C17.2589 13.0925 17.2203 13.1435 17.1995 13.2025L16.9508 13.9673C16.875 14.1982 16.7467 14.4085 16.5761 14.5816C16.4055 14.7548 16.1971 14.8862 15.9672 14.9655L15.2017 15.214C15.1427 15.2348 15.0916 15.2734 15.0555 15.3244C15.0194 15.3755 15 15.4364 15 15.499C15 15.5615 15.0194 15.6224 15.0555 15.6735C15.0916 15.7245 15.1427 15.7631 15.2017 15.7839L15.9672 16.0324C16.2003 16.1101 16.412 16.2412 16.5855 16.4151C16.7589 16.5891 16.8892 16.8012 16.9661 17.0344L17.2148 17.7993C17.2357 17.8582 17.2743 17.9093 17.3253 17.9454C17.3764 17.9815 17.4374 18.0009 17.5 18.0009C17.5625 18.0009 17.6235 17.9815 17.6746 17.9454C17.7257 17.9093 17.7643 17.8582 17.7851 17.7993L18.0339 17.0344C18.1112 16.8019 18.2418 16.5906 18.4152 16.4173C18.5886 16.244 18.8001 16.1136 19.0328 16.0363L19.7982 15.7877C19.8572 15.7669 19.9083 15.7283 19.9444 15.6773C19.9806 15.6263 20 15.5653 20 15.5028C20 15.4403 19.9806 15.3793 19.9444 15.3283C19.9083 15.2772 19.8572 15.2387 19.7982 15.2179L19.7829 15.214ZM4.99997 2.5C4.99997 2.22386 5.22383 2 5.49997 2H14.5C14.7761 2 15 2.22386 15 2.5V6.09979C14.8348 6.03477 14.658 6.00085 14.4785 6.00085C14.3145 6.00085 14.1527 6.02919 14 6.08371V3H13V5.50219C13 5.77834 12.7761 6.00219 12.5 6.00219C12.2238 6.00219 12 5.77834 12 5.50219V3H11V4.5C11 4.77614 10.7761 5 10.5 5C10.2238 5 9.99997 4.77614 9.99997 4.5V3H5.99997V9.00436H11.4165L10.9617 9.15205L10.95 9.15619C10.6724 9.25405 10.4318 9.4356 10.2616 9.67594C10.1894 9.77798 10.1313 9.88847 10.0884 10.0044H5.99999V11.0043C5.99999 11.5566 6.4477 12.0043 6.99999 12.0043H8.50408C8.78023 12.0043 9.00408 12.2282 9.00408 12.5043V16.0017C9.00408 16.554 9.4518 17.0017 10.0041 17.0017C10.5564 17.0017 11.0041 16.5539 11.0041 16.0017V12.5043C11.0041 12.2429 11.2047 12.0284 11.4603 12.0062L12.041 12.1948C12.1904 12.245 12.3282 12.3239 12.4468 12.4266C12.469 12.4458 12.4906 12.466 12.5115 12.4869C12.6211 12.5969 12.7082 12.7267 12.7684 12.8691C12.7808 12.8987 12.7921 12.9287 12.8022 12.9592L12.8027 12.9608L12.8169 13.0043H12.0041V16.0017C12.0041 17.1062 11.1087 18.0017 10.0041 18.0017C8.89951 18.0017 8.00408 17.1062 8.00408 16.0017V13.0043H6.99999C5.89542 13.0043 4.99999 12.1089 4.99999 11.0043L4.99997 2.5Z"/></svg>