<svg xmlns="http://www.w3.org/2000/svg" viewBox="0 0 20 20" fill="#24292f"><path d="M9 1.5c.18 0 .34.12.39.29l.82 2.72a4.7 4.7 0 0 0 3.15 3.15l2.72.82a.4.4 0 0 1 0 .77l-2.72.82a4.7 4.7 0 0 0-3.15 3.15l-.82 2.72a.4.4 0 0 1-.77 0l-.82-2.72a4.7 4.7 0 0 0-3.15-3.15l-2.72-.82a.4.4 0 0 1 0-.77l2.72-.82A4.7 4.7 0 0 0 7.6 4.51l.82-2.72A.4.4 0 0 1 9 1.5Z"/><path d="M15.5 1c.16 0 .3.1.34.26l.32.99c.15.47.52.84.99.99l.99.32a.36.36 0 0 1 0 .68l-.99.32a1.56 1.56 0 0 0-.99.99l-.32.99a.36.36 0 0 1-.68 0l-.32-.99a1.56 1.56 0 0 0-.99-.99l-.99-.32a.36.36 0 0 1 0-.68l.99-.32c.47-.15.84-.52.99-.99l.32-.99A.36.36 0 0 1 15.5 1Z"/></svg>